<svg xmlns="http://www.w3.org/2000/svg" width="430" height="431" fill="none" viewBox="0 0 430 431"><path fill="#f9c9c0" d="M197.66 161.5H202a65.85 65.85 0 0 1 47.369 20.103 65.87 65.87 0 0 1 18.451 48.037l-2.15 61.63a65.847 65.847 0 0 1-65.81 63.57A65.86 65.86 0 0 1 134 291.28l-2.14-61.63a65.86 65.86 0 0 1 18.437-48.039A65.85 65.85 0 0 1 197.66 161.5"/><path stroke="#121331" stroke-linecap="round" stroke-linejoin="round" stroke-width="7" d="M197.66 161.5H202a65.85 65.85 0 0 1 47.373 20.107 65.86 65.86 0 0 1 18.447 48.043l-2.15 61.62a65.847 65.847 0 0 1-65.81 63.57A65.863 65.863 0 0 1 134 291.27l-2.14-61.62a65.86 65.86 0 0 1 18.437-48.039A65.85 65.85 0 0 1 197.66 161.5"/><path fill="#ebe6ef" d="M265.68 289.5s4.09 34.19-11.91 60.67c-18.52 30.62-54 52.35-54 52.35s-35.51-21.73-54-52.35c-16.04-26.49-11.95-60.67-11.95-60.67"/><path fill="#ebe6ef" d="M211.82 394.15c-7.12 5.35-12 8.36-12 8.36s-35.5-21.73-54-52.35c-16.06-26.48-11.98-60.66-11.98-60.66h24.08s-4.09 34.19 11.92 60.67c11.62 19.22 29.95 34.94 41.98 43.98"/><path stroke="#121331" stroke-linecap="round" stroke-linejoin="round" stroke-width="7" d="M265.68 289.5s4.09 34.19-11.91 60.67c-18.52 30.62-54 52.36-54 52.36s-35.51-21.74-54-52.36c-16.04-26.5-11.95-60.67-11.95-60.67"/><path fill="#92140c" d="M218.27 105.711a87.9 87.9 0 0 1 25.29 20.59 86 86 0 0 1 7.65 10.58 86.85 86.85 0 0 1 12.87 45.62c-3.75 4-27.94 29.2-66.82 28.62-37.33-.56-60.26-24.45-64.14-28.62-.29-3-.57-7.08-.57-12a126.86 126.86 0 0 1 37.146-89.71 126.86 126.86 0 0 1 89.704-37.16q4.32 0 8.56.29c5.89.33 10.18 2.53 10.32 4.58s-4.17 5.2-10.95 6c-2.66 1.54-22 13.15-27.77 31.74a51.92 51.92 0 0 0 4 40.07"/><path fill="#92140c" d="M189.74 100.991a138.65 138.65 0 0 0-22.8 76.68c0 5.18.29 9.52.57 12.66a93.4 93.4 0 0 0 26.67 20.68c-35.51-1.76-57.29-24.46-61.07-28.51-.28-3-.56-7.08-.56-12a126.86 126.86 0 0 1 37.146-89.71 126.86 126.86 0 0 1 89.704-37.16q4.32 0 8.56.29a22 22 0 0 1 6.42 1.27c-34.97 5.68-65.23 26.44-84.64 55.8" opacity=".5" style="mix-blend-mode:multiply"/><path fill="#ebe6ef" d="M279.54 197.5v10a15 15 0 0 1-15 15H134.5a15 15 0 0 1-15-15v-10a15.003 15.003 0 0 1 15-15h130a15 15 0 0 1 5.753 1.13 15.02 15.02 0 0 1 8.141 8.121 15 15 0 0 1 1.146 5.749"/><path fill="#ebe6ef" d="M167.07 222.5h-32.56a15.05 15.05 0 0 1-15-15v-10a15.05 15.05 0 0 1 15-15h32.56a15.05 15.05 0 0 0-15 15v10a15.05 15.05 0 0 0 15 15" opacity=".5" style="mix-blend-mode:multiply"/><path fill="#ebe6ef" d="m268.36 51.22-1.85 5.95 4.57 4.23 1.38 6.07 6.08 1.38 4.23 4.58 5.95-1.85 5.95 1.85 4.23-4.58 6.07-1.38 1.39-6.07 4.57-4.23-1.85-5.95 1.85-5.95-4.57-4.23-1.39-6.08-6.07-1.38-4.23-4.58-5.95 1.86-5.95-1.86-4.23 4.58-6.08 1.38-1.38 6.08-4.57 4.23z"/><path fill="#ebe6ef" d="m268.36 51.22-1.85 5.95 4.57 4.23 1.38 6.07 6.08 1.38 4.23 4.58 5.95-1.85 5.95 1.85 4.23-4.58 6.07-1.38 1.39-6.07 4.57-4.23-1.85-5.95 1.85-5.95-4.57-4.23-1.39-6.08-6.07-1.38-4.23-4.58-5.95 1.86-5.95-1.86-4.23 4.58-6.08 1.38-1.38 6.08-4.57 4.23z"/><path fill="#ebe6ef" d="m291.68 68.86 3.6 3.9-.62.67-5.94-1.85-5.96 1.85-4.23-4.57-6.07-1.39-1.39-6.07-4.56-4.23 1.85-5.95-1.85-5.95 4.56-4.23 1.39-6.08 6.07-1.38 4.23-4.58 5.96 1.85 5.94-1.85.62.67-3.6 3.91-6.07 1.38-1.38 6.08-4.58 4.23 1.85 5.95-1.85 5.95 4.58 4.23 1.38 6.07zm-16.36 216.8a41.058 41.058 0 0 1-75.56 7.92 41.065 41.065 0 0 1-40.442 21.388 41.07 41.07 0 0 1-35.128-29.308 43 43 0 0 0 6 2.11 41 41 0 0 0 43.84-15.53 25 25 0 0 1 2.11-2.74 16 16 0 0 1 10-4.87 16.2 16.2 0 0 1 5.79.46 16 16 0 0 1 7.86 4.86 16 16 0 0 1 7.85-4.86 16.12 16.12 0 0 1 11.23 1.09 16 16 0 0 1 4.53 3.32c.758.854 1.456 1.76 2.09 2.71a41.05 41.05 0 0 0 43.85 15.53 44 44 0 0 0 5.98-2.08"/><path stroke="#121331" stroke-linecap="round" stroke-linejoin="round" stroke-width="7" d="M133.12 182.501q-.57-5.91-.57-12a126.86 126.86 0 0 1 37.146-89.71 126.86 126.86 0 0 1 89.704-37.16q4.32 0 8.56.29m-49.69 61.79a87.5 87.5 0 0 1 25.29 20.59 86 86 0 0 1 7.65 10.58 86.83 86.83 0 0 1 12.87 45.62"/><path stroke="#121331" stroke-linecap="round" stroke-linejoin="round" stroke-width="7" d="M267.34 54.5a51.83 51.83 0 0 0-23.78 71.81m35.98 71.19v10a15.05 15.05 0 0 1-15 15H134.5a15.05 15.05 0 0 1-15-15v-10a15.05 15.05 0 0 1 15-15h130a15 15 0 0 1 5.753 1.13 15.02 15.02 0 0 1 8.141 8.121 15 15 0 0 1 1.146 5.749"/><path stroke="#121331" stroke-linecap="round" stroke-linejoin="round" stroke-width="7" d="m268.36 51.21-1.85 5.95 4.57 4.23 1.38 6.08 6.08 1.38 4.23 4.57 5.95-1.84 5.95 1.84 4.23-4.57 6.07-1.38 1.39-6.08 4.57-4.23-1.85-5.95 1.85-5.95-4.57-4.23-1.39-6.07-6.07-1.39-4.23-4.57-5.95 1.85-5.95-1.85-4.23 4.57-6.08 1.39-1.38 6.07-4.57 4.23z"/><path stroke="#121331" stroke-linecap="round" stroke-linejoin="round" stroke-width="7" d="m268.36 51.21-1.85 5.95 4.57 4.23 1.38 6.08 6.08 1.38 4.23 4.57 5.95-1.84 5.95 1.84 4.23-4.57 6.07-1.38 1.39-6.08 4.57-4.23-1.85-5.95 1.85-5.95-4.57-4.23-1.39-6.07-6.07-1.39-4.23-4.57-5.95 1.85-5.95-1.85-4.23 4.57-6.08 1.39-1.38 6.07-4.57 4.23zm6.96 234.44a41.05 41.05 0 0 1-75.56 7.92 41.07 41.07 0 0 1-16.966 16.848 41.07 41.07 0 0 1-45.5-4.769 41.06 41.06 0 0 1-13.104-19.999 41.19 41.19 0 0 0 49.86-13.41 25 25 0 0 1 2.09-2.74 16.1 16.1 0 0 1 4.54-3.31 15.7 15.7 0 0 1 5.42-1.55 16.2 16.2 0 0 1 5.79.46 15.83 15.83 0 0 1 7.86 4.86 15.9 15.9 0 0 1 7.85-4.86 16.3 16.3 0 0 1 5.81-.46c1.885.189 3.72.714 5.42 1.55a16.2 16.2 0 0 1 4.53 3.31 25 25 0 0 1 2.09 2.72 41 41 0 0 0 43.85 15.52 42 42 0 0 0 6.02-2.09"/></svg>